<svg xmlns="http://www.w3.org/2000/svg" width="79" height="21" viewBox="0 0 79 21"><g fill="#fff"><path d="M9.1 12.1L12.8 0h4.9l3.7 12.1L25.6 0h5.1l-7.3 21h-3.5L15.3 6.4 10.7 21H7.2L-.1 0H5l4.1 12.1zM48.3 0v4.2H37.8v4.3h9.4v4h-9.4v4.3h10.8V21H33.1V0h15.2zM61.9 21h-9.2V0h8.2c1.4 0 2.6.2 3.7.5 1 .3 1.8.8 2.3 1.4.9 1.1 1.4 2.3 1.4 3.7 0 1.6-.5 2.9-1.6 3.7-.4.3-.6.5-.8.5-.1.1-.4.2-.8.3 1.3.3 2.3.9 3.1 1.8.8.9 1.2 2 1.2 3.3 0 1.5-.5 2.8-1.5 3.9-1.1 1.2-3.1 1.9-6 1.9zM57.4 8.5h2.2c1.3 0 2.3-.1 2.9-.4.6-.3.9-.9.9-1.8s-.3-1.5-.9-1.8c-.4-.4-1.4-.5-2.8-.5h-2.3v4.5zm0 8.5h3.2c1.3 0 2.3-.2 3-.5.7-.3 1-1 1-2s-.4-1.6-1.1-1.9c-.7-.3-1.8-.5-3.4-.5h-2.8V17zM73.4 0h4.7v21h-4.7V0z"/></g></svg>