<?xml version="1.0" standalone="no"?>
<!DOCTYPE svg PUBLIC "-//W3C//DTD SVG 20010904//EN"
 "http://www.w3.org/TR/2001/REC-SVG-20010904/DTD/svg10.dtd">
<svg version="1.0" xmlns="http://www.w3.org/2000/svg"
 width="260.000000pt" height="260.000000pt" viewBox="0 0 260.000000 260.000000"
 preserveAspectRatio="xMidYMid meet">
<metadata>
Created by potrace 1.11, written by Peter Selinger 2001-2013
</metadata>
<g transform="translate(0.000000,260.000000) scale(0.100000,-0.100000)"
fill="#000000" stroke="none">
<path d="M0 1300 l0 -1300 1300 0 1300 0 0 1300 0 1300 -1300 0 -1300 0 0
-1300z m850 608 c0 -7 22 -166 49 -353 27 -187 57 -402 66 -478 10 -76 19
-136 21 -135 1 2 16 77 33 168 17 91 63 310 103 488 l72 322 121 0 122 0 67
-292 c37 -161 83 -382 104 -490 20 -108 38 -196 39 -194 2 1 17 104 33 227 34
255 98 693 105 727 5 21 9 22 140 22 135 0 135 0 130 -22 -7 -32 -215 -1210
-215 -1220 0 -4 -81 -8 -180 -8 -99 0 -180 2 -180 5 0 3 -31 151 -69 328 -38
177 -75 360 -82 407 -17 117 -24 124 -37 38 -7 -40 -44 -232 -84 -426 l-71
-352 -176 2 -175 3 -113 610 c-62 336 -113 616 -113 623 0 9 36 12 145 12 109
0 145 -3 145 -12z"/>
</g>
</svg>
